<svg version="1.1" xmlns="http://www.w3.org/2000/svg" xmlns:xlink="http://www.w3.org/1999/xlink" width="467.8017578125" height="428"><defs/><g><g transform="translate(-478,-250) scale(1,1)"><rect fill="#C0C0C0" stroke="none" x="495" y="367" width="51.62451171875" height="44" opacity="0.2"/></g><g transform="translate(-478,-250) scale(1,1)"><rect fill="#ffffff" stroke="none" x="488" y="360" width="51.62451171875" height="44"/></g><g transform="translate(-478,-250) scale(1,1)"><path fill="none" stroke="#000000" d="M 488 360 L 539.62451171875 360 L 539.62451171875 404 L 488 404 L 488 360 Z Z" stroke-miterlimit="10"/></g><g transform="translate(-478,-250) scale(1,1)"><path fill="none" stroke="#000000" d="M 488 385 L 539.62451171875 385" stroke-miterlimit="10"/></g><g transform="translate(-478,-250) scale(1,1)"><path fill="none" stroke="#000000" d="M 488 395 L 539.62451171875 395" stroke-miterlimit="10"/></g><g transform="translate(-478,-250) scale(1,1)"><g><path fill="none" stroke="none"/><text fill="#000000" stroke="none" font-family="Arial" font-size="13px" font-style="normal" font-weight="bold" text-decoration="none" x="493.57275390625" y="379.5">People</text></g></g><g transform="translate(-478,-250) scale(1,1)"><rect fill="#C0C0C0" stroke="none" x="495" y="481" width="57.3818359375" height="44" opacity="0.2"/></g><g transform="translate(-478,-250) scale(1,1)"><rect fill="#ffffff" stroke="none" x="488" y="474" width="57.3818359375" height="44"/></g><g transform="translate(-478,-250) scale(1,1)"><path fill="none" stroke="#000000" d="M 488 474 L 545.3818359375 474 L 545.3818359375 518 L 488 518 L 488 474 Z Z" stroke-miterlimit="10"/></g><g transform="translate(-478,-250) scale(1,1)"><path fill="none" stroke="#000000" d="M 488 499 L 545.3818359375 499" stroke-miterlimit="10"/></g><g transform="translate(-478,-250) scale(1,1)"><path fill="none" stroke="#000000" d="M 488 509 L 545.3818359375 509" stroke-miterlimit="10"/></g><g transform="translate(-478,-250) scale(1,1)"><g><path fill="none" stroke="none"/><text fill="#000000" stroke="none" font-family="Arial" font-size="13px" font-style="normal" font-weight="bold" text-decoration="none" x="494.28369140625" y="493.5">Student</text></g></g><g transform="translate(-478,-250) scale(1,1)"><path fill="none" stroke="#000000" d="M 515 473 L 514 405" stroke-miterlimit="10"/></g><g transform="translate(-478,-250) scale(1,1)"><path fill="#FFFFFF" stroke="none" d="M 522.7169951830236 425.19935630110876 L 514 405 L 505.8807445893692 425.4469482216037"/></g><g transform="translate(-478,-250) scale(1,1)"><path fill="none" stroke="#000000" d="M 522.7169951830236 425.19935630110876 L 514 405 L 505.8807445893692 425.4469482216037 L 522.7169951830236 425.19935630110876" stroke-miterlimit="10"/></g><g transform="translate(-478,-250) scale(1,1)"><rect fill="#C0C0C0" stroke="none" x="555.919921875" y="481" width="69.6708984375" height="44" opacity="0.2"/></g><g transform="translate(-478,-250) scale(1,1)"><rect fill="#ffffff" stroke="none" x="548.919921875" y="474" width="69.6708984375" height="44"/></g><g transform="translate(-478,-250) scale(1,1)"><path fill="none" stroke="#000000" d="M 548.919921875 474 L 618.5908203125 474 L 618.5908203125 518 L 548.919921875 518 L 548.919921875 474 Z Z" stroke-miterlimit="10"/></g><g transform="translate(-478,-250) scale(1,1)"><path fill="none" stroke="#000000" d="M 548.919921875 499 L 618.5908203125 499" stroke-miterlimit="10"/></g><g transform="translate(-478,-250) scale(1,1)"><path fill="none" stroke="#000000" d="M 548.919921875 509 L 618.5908203125 509" stroke-miterlimit="10"/></g><g transform="translate(-478,-250) scale(1,1)"><g><path fill="none" stroke="none"/><text fill="#000000" stroke="none" font-family="Arial" font-size="13px" font-style="normal" font-weight="bold" text-decoration="none" x="556.66357421875" y="493.5">Instructor</text></g></g><g transform="translate(-478,-250) scale(1,1)"><path fill="none" stroke="#000000" d="M 569 473 L 527 405" stroke-miterlimit="10"/></g><g transform="translate(-478,-250) scale(1,1)"><path fill="#FFFFFF" stroke="none" d="M 544.8437251268798 417.8686236092427 L 527 405 L 530.5179280202126 426.71691005747834"/></g><g transform="translate(-478,-250) scale(1,1)"><path fill="none" stroke="#000000" d="M 544.8437251268798 417.8686236092427 L 527 405 L 530.5179280202126 426.71691005747834 L 544.8437251268798 417.8686236092427" stroke-miterlimit="10"/></g><g transform="translate(-478,-250) scale(1,1)"><rect fill="#C0C0C0" stroke="none" x="663" y="481" width="78.3291015625" height="44" opacity="0.2"/></g><g transform="translate(-478,-250) scale(1,1)"><rect fill="#ffffff" stroke="none" x="656" y="474" width="78.3291015625" height="44"/></g><g transform="translate(-478,-250) scale(1,1)"><path fill="none" stroke="#000000" d="M 656 474 L 734.3291015625 474 L 734.3291015625 518 L 656 518 L 656 474 Z Z" stroke-miterlimit="10"/></g><g transform="translate(-478,-250) scale(1,1)"><path fill="none" stroke="#000000" d="M 656 499 L 734.3291015625 499" stroke-miterlimit="10"/></g><g transform="translate(-478,-250) scale(1,1)"><path fill="none" stroke="#000000" d="M 656 509 L 734.3291015625 509" stroke-miterlimit="10"/></g><g transform="translate(-478,-250) scale(1,1)"><g><path fill="none" stroke="none"/><text fill="#000000" stroke="none" font-family="Arial" font-size="13px" font-style="normal" font-weight="bold" text-decoration="none" x="663.372314453125" y="493.5">AdminStaff</text></g></g><g transform="translate(-478,-250) scale(1,1)"><path fill="none" stroke="#000000" d="M 658 473 L 541 399" stroke-miterlimit="10"/></g><g transform="translate(-478,-250) scale(1,1)"><path fill="#FFFFFF" stroke="none" d="M 562.678157702441 402.74933042396844 L 541 399 L 553.6775953473303 416.9799492827246"/></g><g transform="translate(-478,-250) scale(1,1)"><path fill="none" stroke="#000000" d="M 562.678157702441 402.74933042396844 L 541 399 L 553.6775953473303 416.9799492827246 L 562.678157702441 402.74933042396844" stroke-miterlimit="10"/></g><g transform="translate(-478,-250) scale(1,1)"><rect fill="#C0C0C0" stroke="none" x="695" y="631" width="53.7890625" height="44" opacity="0.2"/></g><g transform="translate(-478,-250) scale(1,1)"><rect fill="#ffffff" stroke="none" x="688" y="624" width="53.7890625" height="44"/></g><g transform="translate(-478,-250) scale(1,1)"><path fill="none" stroke="#000000" d="M 688 624 L 741.7890625 624 L 741.7890625 668 L 688 668 L 688 624 Z Z" stroke-miterlimit="10"/></g><g transform="translate(-478,-250) scale(1,1)"><path fill="none" stroke="#000000" d="M 688 649 L 741.7890625 649" stroke-miterlimit="10"/></g><g transform="translate(-478,-250) scale(1,1)"><path fill="none" stroke="#000000" d="M 688 659 L 741.7890625 659" stroke-miterlimit="10"/></g><g transform="translate(-478,-250) scale(1,1)"><g><path fill="none" stroke="none"/><text fill="#000000" stroke="none" font-family="Arial" font-size="13px" font-style="normal" font-weight="bold" text-decoration="none" x="693.94091796875" y="643.5">Course</text></g></g><g transform="translate(-478,-250) scale(1,1)"><rect fill="#C0C0C0" stroke="none" x="863" y="631" width="79.8017578125" height="44" opacity="0.2"/></g><g transform="translate(-478,-250) scale(1,1)"><rect fill="#ffffff" stroke="none" x="856" y="624" width="79.8017578125" height="44"/></g><g transform="translate(-478,-250) scale(1,1)"><path fill="none" stroke="#000000" d="M 856 624 L 935.8017578125 624 L 935.8017578125 668 L 856 668 L 856 624 Z Z" stroke-miterlimit="10"/></g><g transform="translate(-478,-250) scale(1,1)"><path fill="none" stroke="#000000" d="M 856 649 L 935.8017578125 649" stroke-miterlimit="10"/></g><g transform="translate(-478,-250) scale(1,1)"><path fill="none" stroke="#000000" d="M 856 659 L 935.8017578125 659" stroke-miterlimit="10"/></g><g transform="translate(-478,-250) scale(1,1)"><g><path fill="none" stroke="none"/><text fill="#000000" stroke="none" font-family="Arial" font-size="13px" font-style="normal" font-weight="bold" text-decoration="none" x="863.023193359375" y="643.5">LectureHall</text></g></g><g transform="translate(-478,-250) scale(1,1)"><path fill="none" stroke="#000000" d="M 743 646 L 855 646" stroke-miterlimit="10"/></g><g transform="translate(-478,-250) scale(1,1)"><path fill="#FFFFFF" stroke="none" d="M 753.1626748576241 641.790482243984 L 743 646 L 753.1626748576241 650.209517756016 L 765 646"/></g><g transform="translate(-478,-250) scale(1,1)"><path fill="none" stroke="#000000" d="M 753.1626748576241 641.790482243984 L 743 646 L 753.1626748576241 650.209517756016 L 765 646 L 753.1626748576241 641.790482243984" stroke-miterlimit="10"/></g><g transform="translate(-478,-250) scale(1,1)"><path fill="none" stroke="#000000" d="M 546 519 L 687 626" stroke-miterlimit="10"/></g><g transform="translate(-478,-250) scale(1,1)"><path fill="#FFFFFF" stroke="none" d="M 676.3597429500833 623.2098512742691 L 687 626 L 681.4491351709192 616.5032690019526 L 669.4748559641896 612.7007772210517"/></g><g transform="translate(-478,-250) scale(1,1)"><path fill="none" stroke="#000000" d="M 676.3597429500833 623.2098512742691 L 687 626 L 681.4491351709192 616.5032690019526 L 669.4748559641896 612.7007772210517 L 676.3597429500833 623.2098512742691" stroke-miterlimit="10"/></g><g transform="translate(-478,-250) scale(1,1)"><path fill="none" stroke="#000000" d="M 711 623 L 698 519" stroke-miterlimit="10" stroke-dasharray="3"/></g><g transform="translate(-478,-250) scale(1,1)"><path fill="none" stroke="#000000" d="M 703.4375360196099 528.5620710118386 L 698 519 L 695.0835133377539 529.6063238470707" stroke-miterlimit="10"/></g><g transform="translate(-478,-250) scale(1,1)"><path fill="none" stroke="#000000" d="M 694 623 L 603 519" stroke-miterlimit="10"/></g><g transform="translate(-478,-250) scale(1,1)"><path fill="#FFFFFF" stroke="none" d="M 612.8601531811474 523.8762054144906 L 603 519 L 606.5241832628826 529.4201790929724 L 617.4871013731074 535.5566872835514"/></g><g transform="translate(-478,-250) scale(1,1)"><path fill="none" stroke="#000000" d="M 612.8601531811474 523.8762054144906 L 603 519 L 606.5241832628826 529.4201790929724 L 617.4871013731074 535.5566872835514 L 612.8601531811474 523.8762054144906" stroke-miterlimit="10"/></g><g transform="translate(-478,-250) scale(1,1)"><rect fill="#C0C0C0" stroke="none" x="495" y="267" width="71.86083984375" height="44" opacity="0.2"/></g><g transform="translate(-478,-250) scale(1,1)"><rect fill="#ffffff" stroke="none" x="488" y="260" width="71.86083984375" height="44"/></g><g transform="translate(-478,-250) scale(1,1)"><path fill="none" stroke="#000000" d="M 488 260 L 559.86083984375 260 L 559.86083984375 304 L 488 304 L 488 260 Z Z" stroke-miterlimit="10"/></g><g transform="translate(-478,-250) scale(1,1)"><path fill="none" stroke="#000000" d="M 488 285 L 559.86083984375 285" stroke-miterlimit="10"/></g><g transform="translate(-478,-250) scale(1,1)"><path fill="none" stroke="#000000" d="M 488 295 L 559.86083984375 295" stroke-miterlimit="10"/></g><g transform="translate(-478,-250) scale(1,1)"><g><path fill="none" stroke="none"/><text fill="#000000" stroke="none" font-family="Arial" font-size="13px" font-style="normal" font-weight="bold" text-decoration="none" x="495.397705078125" y="279.5">University</text></g></g><g transform="translate(-478,-250) scale(1,1)"><path fill="none" stroke="#000000" d="M 515 359 L 521 305" stroke-miterlimit="10"/></g><g transform="translate(-478,-250) scale(1,1)"><path fill="#FFFFFF" stroke="none" d="M 524.0614915349942 315.5653807116052 L 521 305 L 515.6939490779461 314.63565377193316 L 518.5705064263534 326.8654421628196"/></g><g transform="translate(-478,-250) scale(1,1)"><path fill="none" stroke="#000000" d="M 524.0614915349942 315.5653807116052 L 521 305 L 515.6939490779461 314.63565377193316 L 518.5705064263534 326.8654421628196 L 524.0614915349942 315.5653807116052" stroke-miterlimit="10"/></g></g></svg>