<svg version="1.1" xmlns="http://www.w3.org/2000/svg" width="400" height="400" preserveAspectRatio="xMidYMid meet" viewBox="0 0 400 400">
  <path fill="#464646" d="M116 116L116 32L200 32ZM200 32L284 32L284 116ZM284 284L284 368L200 368ZM200 368L116 368L116 284ZM32 200L32 116L116 116ZM284 116L368 116L368 200ZM368 200L368 284L284 284ZM116 284L32 284L32 200Z"/>
  <path fill="#59b5c7" d="M32 32L116 32L116 74ZM368 32L368 116L326 116ZM368 368L284 368L284 326ZM32 368L32 284L74 284ZM146 167a21,21 0 1,1 42,0a21,21 0 1,1 -42,0M212 167a21,21 0 1,1 42,0a21,21 0 1,1 -42,0M212 233a21,21 0 1,1 42,0a21,21 0 1,1 -42,0M146 233a21,21 0 1,1 42,0a21,21 0 1,1 -42,0"/>
</svg>
