<svg version="1.1" xmlns="http://www.w3.org/2000/svg" width="400" height="400" preserveAspectRatio="xMidYMid meet" viewBox="0 0 400 400">
  <path fill="#673db7" d="M200 32L200 116L116 116ZM284 116L200 116L200 32ZM200 368L200 284L284 284ZM116 284L200 284L200 368ZM116 116L116 200L32 200ZM368 200L284 200L284 116ZM284 284L284 200L368 200ZM32 200L116 200L116 284Z"/>
  <path fill="#a084d6" d="M116 116L32 116L32 32ZM284 116L284 32L368 32ZM284 284L368 284L368 368ZM116 284L116 368L32 368ZM116 116L200 116L200 129.4L164.7 200L116 200ZM284 116L284 200L270.6 200L200 164.7L200 116ZM284 284L200 284L200 270.6L235.3 200L284 200ZM116 284L116 200L129.4 200L200 235.3L200 284Z"/>
</svg>
