<svg version="1.1" xmlns="http://www.w3.org/2000/svg" width="400" height="400" preserveAspectRatio="xMidYMid meet" viewBox="0 0 400 400">
  <path fill="#5b5b5b" d="M200 116L116 116L116 74ZM200 116L200 32L242 32ZM200 284L284 284L284 326ZM200 284L200 368L158 368ZM116 200L32 200L32 158ZM284 200L284 116L326 116ZM284 200L368 200L368 242ZM116 200L116 284L74 284Z"/>
  <path fill="#84a1d6" d="M32 32L116 32L116 116ZM368 32L368 116L284 116ZM368 368L284 368L284 284ZM32 368L32 284L116 284Z"/>
  <path fill="#eaeaea" d="M200 158L200 200L158 200ZM242 200L200 200L200 158ZM200 242L200 200L242 200ZM158 200L200 200L200 242Z"/>
</svg>
