<svg version="1.1" xmlns="http://www.w3.org/2000/svg" width="400" height="400" preserveAspectRatio="xMidYMid meet" viewBox="0 0 400 400">
  <path fill="#d1759c" d="M116 32L200 32L200 116ZM284 32L284 116L200 116ZM284 368L200 368L200 284ZM116 368L116 284L200 284ZM32 116L116 116L116 200ZM368 116L368 200L284 200ZM368 284L284 284L284 200ZM32 284L32 200L116 200ZM46 74a28,28 0 1,1 56,0a28,28 0 1,1 -56,0M298 74a28,28 0 1,1 56,0a28,28 0 1,1 -56,0M298 326a28,28 0 1,1 56,0a28,28 0 1,1 -56,0M46 326a28,28 0 1,1 56,0a28,28 0 1,1 -56,0"/>
  <path fill="#e8e8e8" d="M116 116L200 116L200 200L116 200ZM137 168.5L168.5 200L200 168.5L168.5 137ZM284 116L284 200L200 200L200 116ZM231.5 137L200 168.5L231.5 200L263 168.5ZM284 284L200 284L200 200L284 200ZM263 231.5L231.5 200L200 231.5L231.5 263ZM116 284L116 200L200 200L200 284ZM168.5 263L200 231.5L168.5 200L137 231.5Z"/>
</svg>
